<mxfile host="app.diagrams.net" modified="2020-12-10T03:53:55.614Z" agent="5.0 (Windows NT 10.0; Win64; x64) AppleWebKit/537.36 (KHTML, like Gecko) Chrome/86.0.4240.198 Safari/537.36" etag="zNSeCPgt2JyecYag5wDk" version="13.10.1" type="github">
  <diagram id="6PzlEFpMMZkA4LgLL8cu" name="Page-1">
    <mxGraphModel dx="868" dy="450" grid="1" gridSize="10" guides="1" tooltips="1" connect="1" arrows="1" fold="1" page="1" pageScale="1" pageWidth="827" pageHeight="1169" math="0" shadow="0">
      <root>
        <mxCell id="0" />
        <mxCell id="1" parent="0" />
        <mxCell id="EQdurxSnU0d9Q92_AklR-13" style="edgeStyle=orthogonalEdgeStyle;rounded=0;orthogonalLoop=1;jettySize=auto;html=1;entryX=0;entryY=0.5;entryDx=0;entryDy=0;" edge="1" parent="1" source="EQdurxSnU0d9Q92_AklR-1" target="EQdurxSnU0d9Q92_AklR-3">
          <mxGeometry relative="1" as="geometry" />
        </mxCell>
        <mxCell id="EQdurxSnU0d9Q92_AklR-1" value="WEB&lt;br&gt;&lt;br&gt;APP" style="rounded=0;whiteSpace=wrap;html=1;" vertex="1" parent="1">
          <mxGeometry x="40" y="530" width="80" height="100" as="geometry" />
        </mxCell>
        <mxCell id="EQdurxSnU0d9Q92_AklR-14" value="" style="edgeStyle=orthogonalEdgeStyle;rounded=0;orthogonalLoop=1;jettySize=auto;html=1;" edge="1" parent="1" source="EQdurxSnU0d9Q92_AklR-3" target="EQdurxSnU0d9Q92_AklR-5">
          <mxGeometry relative="1" as="geometry">
            <Array as="points">
              <mxPoint x="380" y="580" />
              <mxPoint x="380" y="580" />
            </Array>
          </mxGeometry>
        </mxCell>
        <mxCell id="EQdurxSnU0d9Q92_AklR-3" value="Log" style="rounded=1;whiteSpace=wrap;html=1;" vertex="1" parent="1">
          <mxGeometry x="180" y="557.5" width="90" height="45" as="geometry" />
        </mxCell>
        <mxCell id="EQdurxSnU0d9Q92_AklR-15" style="edgeStyle=orthogonalEdgeStyle;rounded=0;orthogonalLoop=1;jettySize=auto;html=1;entryX=0;entryY=0.5;entryDx=0;entryDy=0;" edge="1" parent="1" source="EQdurxSnU0d9Q92_AklR-5" target="EQdurxSnU0d9Q92_AklR-6">
          <mxGeometry relative="1" as="geometry" />
        </mxCell>
        <mxCell id="EQdurxSnU0d9Q92_AklR-5" value="HDFS" style="rounded=0;whiteSpace=wrap;html=1;" vertex="1" parent="1">
          <mxGeometry x="390" y="550" width="120" height="60" as="geometry" />
        </mxCell>
        <mxCell id="EQdurxSnU0d9Q92_AklR-16" style="edgeStyle=orthogonalEdgeStyle;rounded=0;orthogonalLoop=1;jettySize=auto;html=1;exitX=0.5;exitY=1;exitDx=0;exitDy=0;entryX=0.5;entryY=0;entryDx=0;entryDy=0;" edge="1" parent="1" source="EQdurxSnU0d9Q92_AklR-6" target="EQdurxSnU0d9Q92_AklR-7">
          <mxGeometry relative="1" as="geometry" />
        </mxCell>
        <mxCell id="EQdurxSnU0d9Q92_AklR-6" value="HDFS/HIVE" style="rounded=0;whiteSpace=wrap;html=1;" vertex="1" parent="1">
          <mxGeometry x="640" y="550" width="120" height="60" as="geometry" />
        </mxCell>
        <mxCell id="EQdurxSnU0d9Q92_AklR-17" style="edgeStyle=orthogonalEdgeStyle;rounded=0;orthogonalLoop=1;jettySize=auto;html=1;exitX=0;exitY=0.5;exitDx=0;exitDy=0;entryX=1;entryY=0.5;entryDx=0;entryDy=0;" edge="1" parent="1" source="EQdurxSnU0d9Q92_AklR-7" target="EQdurxSnU0d9Q92_AklR-8">
          <mxGeometry relative="1" as="geometry" />
        </mxCell>
        <mxCell id="EQdurxSnU0d9Q92_AklR-7" value="宽表&lt;br&gt;&lt;br&gt;拉链表" style="whiteSpace=wrap;html=1;aspect=fixed;" vertex="1" parent="1">
          <mxGeometry x="660" y="700" width="80" height="80" as="geometry" />
        </mxCell>
        <mxCell id="EQdurxSnU0d9Q92_AklR-18" style="edgeStyle=orthogonalEdgeStyle;rounded=0;orthogonalLoop=1;jettySize=auto;html=1;exitX=0;exitY=0.5;exitDx=0;exitDy=0;entryX=1;entryY=0.5;entryDx=0;entryDy=0;" edge="1" parent="1" source="EQdurxSnU0d9Q92_AklR-8" target="EQdurxSnU0d9Q92_AklR-9">
          <mxGeometry relative="1" as="geometry" />
        </mxCell>
        <mxCell id="EQdurxSnU0d9Q92_AklR-8" value="报表层用于存储各项指标" style="rounded=0;whiteSpace=wrap;html=1;" vertex="1" parent="1">
          <mxGeometry x="400" y="710" width="120" height="60" as="geometry" />
        </mxCell>
        <mxCell id="EQdurxSnU0d9Q92_AklR-9" value="MySQL&lt;br&gt;TiDB&lt;br&gt;HBase" style="rounded=0;whiteSpace=wrap;html=1;" vertex="1" parent="1">
          <mxGeometry x="110" y="710" width="120" height="60" as="geometry" />
        </mxCell>
        <mxCell id="EQdurxSnU0d9Q92_AklR-19" value="DataX&lt;br&gt;Sqoop&lt;br&gt;数据导入" style="text;html=1;align=center;verticalAlign=middle;resizable=0;points=[];autosize=1;" vertex="1" parent="1">
          <mxGeometry x="260" y="680" width="60" height="50" as="geometry" />
        </mxCell>
        <mxCell id="EQdurxSnU0d9Q92_AklR-20" value="SparkSQL" style="text;html=1;align=center;verticalAlign=middle;resizable=0;points=[];autosize=1;" vertex="1" parent="1">
          <mxGeometry x="540" y="710" width="70" height="20" as="geometry" />
        </mxCell>
        <mxCell id="EQdurxSnU0d9Q92_AklR-21" value="Join&lt;br&gt;GroupBy" style="text;html=1;align=center;verticalAlign=middle;resizable=0;points=[];autosize=1;" vertex="1" parent="1">
          <mxGeometry x="580" y="630" width="60" height="30" as="geometry" />
        </mxCell>
        <mxCell id="EQdurxSnU0d9Q92_AklR-22" value="ETL数据清洗" style="text;html=1;align=center;verticalAlign=middle;resizable=0;points=[];autosize=1;" vertex="1" parent="1">
          <mxGeometry x="510" y="550" width="90" height="20" as="geometry" />
        </mxCell>
        <mxCell id="EQdurxSnU0d9Q92_AklR-23" value="Flume&lt;br&gt;HDFS sink" style="text;html=1;align=center;verticalAlign=middle;resizable=0;points=[];autosize=1;" vertex="1" parent="1">
          <mxGeometry x="290" y="540" width="70" height="30" as="geometry" />
        </mxCell>
      </root>
    </mxGraphModel>
  </diagram>
</mxfile>
